<svg width="900" height="700" viewBox="0 0 900 700" fill="none" xmlns="http://www.w3.org/2000/svg">
  <defs>
    <linearGradient id="pc-bg" x1="80" y1="40" x2="770" y2="630" gradientUnits="userSpaceOnUse">
      <stop stop-color="#253B40"/>
      <stop offset="1" stop-color="#101516"/>
    </linearGradient>
  </defs>
  <rect width="900" height="700" rx="44" fill="url(#pc-bg)"/>
  <circle cx="194" cy="122" r="100" fill="#CAE9EA" fill-opacity="0.14"/>
  <rect x="98" y="138" width="704" height="370" rx="34" fill="#171E20" stroke="#3B575B" stroke-width="3"/>
  <rect x="168" y="192" width="260" height="176" rx="18" fill="#273B40" stroke="#2B8C8C" stroke-width="4"/>
  <rect x="452" y="178" width="214" height="190" rx="18" fill="#273B40" stroke="#CAE9EA" stroke-width="4"/>
  <rect x="686" y="168" width="64" height="234" rx="22" fill="#1F1F1F" stroke="#2B8C8C" stroke-width="4"/>
  <circle cx="718" cy="232" r="18" fill="#2B8C8C" fill-opacity="0.8"/>
  <circle cx="718" cy="288" r="18" fill="#CAE9EA" fill-opacity="0.8"/>
  <circle cx="718" cy="344" r="18" fill="#2B8C8C" fill-opacity="0.8"/>
  <path d="M198 278H398" stroke="#CAE9EA" stroke-width="4" stroke-linecap="round"/>
  <path d="M478 258H634" stroke="#2B8C8C" stroke-width="4" stroke-linecap="round"/>
  <rect x="214" y="414" width="408" height="34" rx="17" fill="#202B2E"/>
  <rect x="252" y="460" width="328" height="28" rx="14" fill="#2B8C8C"/>
  <rect x="176" y="554" width="548" height="16" rx="8" fill="#CAE9EA"/>
  <text x="98" y="88" fill="#CAE9EA" font-family="Verdana, sans-serif" font-size="34" font-weight="700" letter-spacing="4">PC BATTLESTATION</text>
</svg>
