<svg width="900" height="700" viewBox="0 0 900 700" fill="none" xmlns="http://www.w3.org/2000/svg">
  <defs>
    <linearGradient id="ps-bg" x1="100" y1="40" x2="770" y2="620" gradientUnits="userSpaceOnUse">
      <stop stop-color="#31484F"/>
      <stop offset="1" stop-color="#141B1D"/>
    </linearGradient>
  </defs>
  <rect width="900" height="700" rx="44" fill="url(#ps-bg)"/>
  <circle cx="728" cy="142" r="120" fill="#2B8C8C" fill-opacity="0.2"/>
  <rect x="108" y="140" width="684" height="336" rx="34" fill="#1F1F1F" stroke="#3A5E63" stroke-width="3"/>
  <rect x="192" y="198" width="400" height="188" rx="18" fill="#273B40" stroke="#CAE9EA" stroke-width="4"/>
  <rect x="612" y="188" width="44" height="212" rx="20" fill="#E4F6F6"/>
  <rect x="662" y="176" width="48" height="236" rx="22" fill="#FBFEFE"/>
  <path d="M214 322H570" stroke="#2B8C8C" stroke-width="4" stroke-linecap="round"/>
  <path d="M214 348H476" stroke="#CAE9EA" stroke-opacity="0.8" stroke-width="4" stroke-linecap="round"/>
  <path d="M268 504C268 464.235 300.235 432 340 432H560C599.765 432 632 464.235 632 504V540H268V504Z" fill="#202B2E"/>
  <circle cx="368" cy="496" r="24" fill="#2B8C8C"/>
  <circle cx="532" cy="496" r="24" fill="#CAE9EA"/>
  <rect x="178" y="572" width="544" height="16" rx="8" fill="#2B8C8C"/>
  <text x="108" y="92" fill="#CAE9EA" font-family="Verdana, sans-serif" font-size="34" font-weight="700" letter-spacing="4">PS5 LOUNGE</text>
</svg>
