<svg width="900" height="700" viewBox="0 0 900 700" fill="none" xmlns="http://www.w3.org/2000/svg">
  <defs>
    <linearGradient id="race-bg" x1="100" y1="44" x2="770" y2="634" gradientUnits="userSpaceOnUse">
      <stop stop-color="#2C4448"/>
      <stop offset="1" stop-color="#101617"/>
    </linearGradient>
  </defs>
  <rect width="900" height="700" rx="44" fill="url(#race-bg)"/>
  <circle cx="180" cy="146" r="110" fill="#2B8C8C" fill-opacity="0.16"/>
  <rect x="102" y="148" width="696" height="344" rx="34" fill="#161C1D" stroke="#3E5A5E" stroke-width="3"/>
  <rect x="160" y="188" width="276" height="154" rx="18" fill="#273B40" stroke="#CAE9EA" stroke-width="4"/>
  <path d="M516 426C516 347.68 579.68 284 658 284C736.32 284 800 347.68 800 426H516Z" fill="#1F282A"/>
  <circle cx="658" cy="414" r="74" fill="#202B2E" stroke="#2B8C8C" stroke-width="5"/>
  <circle cx="658" cy="414" r="26" fill="#CAE9EA"/>
  <path d="M264 476L436 364L474 420L316 520L264 476Z" fill="#2B8C8C" fill-opacity="0.7"/>
  <path d="M226 540C226 511.281 249.281 488 278 488H438C466.719 488 490 511.281 490 540V556H226V540Z" fill="#1F2728"/>
  <rect x="188" y="590" width="526" height="16" rx="8" fill="#CAE9EA"/>
  <text x="102" y="96" fill="#CAE9EA" font-family="Verdana, sans-serif" font-size="34" font-weight="700" letter-spacing="4">RACING SIMULATOR</text>
</svg>
