<svg width="900" height="700" viewBox="0 0 900 700" fill="none" xmlns="http://www.w3.org/2000/svg">
  <defs>
    <linearGradient id="vr-bg" x1="120" y1="30" x2="760" y2="640" gradientUnits="userSpaceOnUse">
      <stop stop-color="#314A50"/>
      <stop offset="1" stop-color="#0F1415"/>
    </linearGradient>
  </defs>
  <rect width="900" height="700" rx="44" fill="url(#vr-bg)"/>
  <circle cx="688" cy="164" r="132" fill="#CAE9EA" fill-opacity="0.16"/>
  <rect x="124" y="160" width="652" height="332" rx="38" fill="#191F21" stroke="#3D5B61" stroke-width="3"/>
  <ellipse cx="448" cy="336" rx="176" ry="132" fill="#273B40" stroke="#2B8C8C" stroke-width="4"/>
  <rect x="360" y="292" width="176" height="80" rx="28" fill="#DFF5F5"/>
  <rect x="302" y="320" width="74" height="28" rx="14" fill="#202B2E"/>
  <rect x="522" y="320" width="74" height="28" rx="14" fill="#202B2E"/>
  <circle cx="294" cy="430" r="38" fill="#2B8C8C"/>
  <circle cx="604" cy="430" r="38" fill="#CAE9EA"/>
  <path d="M226 548C226 512.654 254.654 484 290 484H610C645.346 484 674 512.654 674 548V562H226V548Z" fill="#1F282A"/>
  <rect x="186" y="590" width="528" height="16" rx="8" fill="#2B8C8C"/>
  <text x="124" y="102" fill="#CAE9EA" font-family="Verdana, sans-serif" font-size="34" font-weight="700" letter-spacing="4">VR IMMERSION POD</text>
</svg>
